<svg xmlns="http://www.w3.org/2000/svg" viewBox="0 0 24 24" fill="#B92B27">
  <path d="M12.555 18.432c-.807-1.558-1.73-3.038-3.538-3.038-.268 0-.538.04-.806.115l-.538-1.288c.845-.652 2.076-1.096 3.614-1.096 2.573 0 4.074 1.232 5.22 2.998A7.97 7.97 0 0 0 20 12c0-4.418-3.582-8-8-8s-8 3.582-8 8c0 4.417 3.582 8 8 8 .271 0 .54-.017.806-.044-.116-.462-.232-.955-.251-1.524zm.251 3.522A8.023 8.023 0 0 1 12 22C7.582 22 4 18.418 4 14s3.582-8 8-8 8 3.582 8 8a7.983 7.983 0 0 1-1.576 4.769c.807 1.133 1.691 1.806 2.577 1.806v1.289s-3.923.153-5.694-2.91h-.501z"/>
</svg>
